<svg width="120" height="120" viewBox="0 0 120 120" fill="none" xmlns="http://www.w3.org/2000/svg">
<path d="M44.5 16V35.5C44.5 37.9853 46.5147 40 49 40H68.5C70.9853 40 73 37.9853 73 35.5V16H79C87.2843 16 94 22.7157 94 31V77.7373C94 84.2964 86.1743 87.6956 81.3809 83.2188L70.0928 72.6748C66.6918 69.498 61.248 70.1527 58.6982 74.0459L38.7744 104.469C34.6914 110.703 25.0001 107.812 25 100.359V31C25 22.7157 31.7157 16 40 16H44.5Z" fill="black"/>
<path d="M61 16H67V24.5C67 25.6046 66.1046 26.5 65 26.5H63C61.8954 26.5 61 25.6046 61 24.5V16Z" fill="black"/>
</svg>
